<svg xmlns="http://www.w3.org/2000/svg" xmlns:xlink="http://www.w3.org/1999/xlink" width="2196px" height="637px" viewBox="0 0 2196 637" transform="rotate(0) scale(1, 1)"><path fill="#3d6d2d" d="M1681.32 150.405C1719.32 145.644 1764.29 161.938 1793.23 186.278C1825.15 213.092 1845.03 251.543 1848.46 293.085C1852.27 337.525 1837.97 376.4 1809.61 410.164L1849 410.164C1849.07 477.619 1855.47 537.655 1804.12 590.931C1776.47 619.452 1738.53 635.697 1698.81 636.031C1658.97 637.086 1620.36 622.17 1591.59 594.604C1557.34 561.525 1543.77 518.644 1542.95 472L1579.5 472L1596.98 472C1596.97 472.248 1596.97 472.496 1596.97 472.744C1596.87 503.048 1607.1 534.554 1628.87 556.247C1646.73 574.035 1670.96 583.954 1696.17 583.802C1721.36 583.891 1745.54 573.923 1763.34 556.109C1800.25 518.903 1795.14 471.898 1795 423.966C1769.18 445.585 1739.68 458.373 1706.02 461.395C1664.77 465.028 1623.75 452.238 1591.87 425.803C1560.09 399.397 1540.19 361.379 1536.61 320.217C1532.91 278.918 1545.73 237.837 1572.26 205.969C1600.43 172.265 1637.94 154.288 1681.32 150.405ZM1699.39 408.973C1756.23 405.18 1799.24 356.047 1795.47 299.21C1791.71 242.373 1742.6 199.339 1685.76 203.071C1628.88 206.806 1585.81 255.961 1589.57 312.841C1593.34 369.721 1642.52 412.77 1699.39 408.973Z"/><path fill="#3d6d2d" d="M1198.79 150.412C1200.26 150.312 1201.74 150.225 1203.22 150.151C1243.51 148.349 1282.87 162.596 1312.67 189.77C1338.59 213.295 1351.27 237.206 1352.93 272.408C1273.34 288.81 1189.21 308.402 1109.77 326.54C1110.34 329.062 1110.96 331.57 1111.63 334.065C1118.71 360.365 1135.96 382.768 1159.58 396.333C1181.74 408.991 1210.42 413.544 1234.99 406.505C1263.6 398.31 1279.98 380.389 1293.92 355.832L1305.5 355.832L1352.71 355.832C1346.88 374.19 1335.66 394.089 1323.48 408.906C1299.1 438.923 1263.63 457.83 1225.12 461.342C1183.82 465.208 1142.66 452.644 1110.56 426.373C1078.68 400.225 1058.56 362.424 1054.69 321.375C1050.68 279.934 1063.31 238.598 1089.8 206.474C1117.97 172.45 1155.23 154.5 1198.79 150.412ZM1111.55 278.914L1179.77 263.803L1284.38 240.459C1265.43 216.993 1236.24 197.725 1204.68 202.409C1158.04 206.536 1124.69 233.882 1111.55 278.914Z"/><path fill="#27314f" d="M761 5L815 5L815 156L875 156L875 205.887L815 205.887L814.93 270.615C814.903 310.983 812.114 342.237 840.793 375.221C861.53 399.07 886.298 407.876 917 409.945L917 449.5L917 462.085C916.703 462.088 916.405 462.089 916.108 462.089C874.854 461.849 835.365 445.322 806.237 416.106C780.412 390.262 764.58 356.103 761.552 319.693C760.448 306.887 760.918 289.287 760.926 276.097L761 205.887L713 205.887L713 156L761 156L761 5Z"/><path fill="#27314f" d="M441 155.967L495 155.967L495 193.807C525.642 168.571 557.311 156.731 597 155.957L597 208.068C536.326 210.582 495.301 254.539 495 314.75L495 456L441 456L441 155.967Z"/><path fill="#3d6d2d" d="M1380 155.967L1434 155.967L1434 193.807C1464.64 168.571 1496.31 156.731 1536 155.957L1536 208.068C1475.33 210.582 1434.3 254.539 1434 314.75L1434 456L1380 456L1380 155.967Z"/><path fill="#27314f" d="M628 156L682 156L682 456L628 456L628 156Z"/><path fill="#3d6d2d" d="M956.877 46L1009.15 46L999.755 179.245L998.944 190L966.434 190C963.767 142.257 960.105 93.7815 956.877 46Z"/><path fill="#3d6d2d" d="M1813.93 100.484C1830.67 96.1532 1847.75 106.229 1852.06 122.978C1856.37 139.728 1846.27 156.796 1829.52 161.083C1812.79 165.362 1795.76 155.287 1791.46 138.568C1787.16 121.85 1797.21 104.807 1813.93 100.484Z"/><path fill="#27314f" d="M649.734 12.4492C666.785 9.39957 683.067 20.7878 686.05 37.8497C689.033 54.9117 677.582 71.1492 660.509 74.0663C643.529 76.9674 627.399 65.5924 624.432 48.6239C621.465 31.6553 632.778 15.4821 649.734 12.4492Z"/><path fill="#3d6d2d" d="M2196 317.835C2194.87 322.587 2193.89 332.145 2192.66 338.116C2188.31 360.056 2179.11 380.749 2165.75 398.685C2141.06 432.071 2104.09 454.25 2063.01 460.321C2021.51 466.534 1979.24 455.978 1945.54 430.982C1912.38 406.373 1890.43 369.544 1884.54 328.675C1878.67 287.611 1889.25 245.889 1913.97 212.582C1938.97 179.169 1976.32 157.17 2017.67 151.508C2058.85 145.623 2100.69 156.349 2133.96 181.325C2173.46 211.135 2189.37 247.694 2196 295.164L2196 317.835ZM2046.39 408.973C2103.23 405.18 2146.24 356.047 2142.47 299.21C2138.71 242.373 2089.6 199.339 2032.76 203.071C1975.88 206.806 1932.81 255.961 1936.57 312.841C1940.34 369.721 1989.52 412.769 2046.39 408.973Z"/><path fill="#27314f" d="M203.263 0L228.832 0C242.157 1.77821 254.942 3.1292 268.033 6.40916C312.765 18.0465 352.248 44.4683 380.066 81.3816C392.823 98.1232 403.214 116.541 410.948 136.116L344.941 136.116C321.783 98.721 292.601 69.9659 248.484 59.5337C211.822 50.9157 173.236 57.3699 141.375 77.4496C102.059 101.831 75.3644 143.041 64.9771 187.733C53.5541 236.706 61.9648 288.209 88.374 331.003C110.334 366.194 144.196 393.276 185.003 402.675C220.614 410.97 258.062 404.77 289.099 385.441C313.301 370.283 330.299 350.012 344.952 325.884L410.967 325.884C388.273 380.543 350.44 423.654 295.001 446.581C244.459 467.299 187.775 467.188 137.315 446.27C82.726 423.565 40.5778 378.575 18.2242 324.183C11.1564 306.941 6.12023 288.934 3.21754 270.526C2.29798 264.596 1.07198 250.489 0 245.663L0 216.337C1.71853 208.604 2.88485 192.477 4.71488 182.68C11.6393 147.178 26.6204 113.74 48.5043 84.9405C76.8689 47.7725 115.839 20.3036 161.061 7.3859C174.387 3.57948 189.493 1.85548 203.263 0Z"/></svg>