<svg xmlns="http://www.w3.org/2000/svg" xmlns:xlink="http://www.w3.org/1999/xlink" width="864px" height="289px" viewBox="0 0 864 289" transform="rotate(0) scale(1, 1)"><path fill="#3d6d2d" d="M285.622 68.5164C286.771 68.39 288.197 68.4035 289.377 68.4029C308.37 68.2226 326.623 75.756 339.96 89.2794C357.347 106.714 363.654 132.057 358.471 155.852C356.511 164.85 349.222 179.617 342.716 186.073L359.988 186.057C360.158 216.9 363.504 243.83 340.044 268.14C327.344 281.134 309.986 288.524 291.818 288.671C273.712 288.95 256.224 282.091 243.135 269.578C228.114 254.948 221.671 234.946 221.374 214.326L239.73 214.28L246.101 214.305C246.453 239.445 260.508 262.469 287.551 264.618C298.774 265.594 309.922 262.045 318.515 254.758C328.486 246.202 334.56 233.082 335.375 220.048C335.915 211.407 335.045 201.676 335.689 193.04C323.039 201.971 312.939 207.638 297.027 209.404C278.25 211.489 258.284 205.679 243.687 193.47C229.42 181.703 220.431 164.734 218.71 146.32C216.99 126.788 222.308 108.484 234.977 93.4129C245.009 81.5384 258.661 73.285 273.837 69.9199C277.489 69.1443 281.872 68.8434 285.622 68.5164ZM294.652 185.373C320.285 182.425 338.645 159.21 335.609 133.586C332.573 107.961 309.296 89.6806 283.684 92.805C258.196 95.9142 240.024 119.055 243.045 144.555C246.067 170.055 269.143 188.307 294.652 185.373Z"/><path fill="#27314f" d="M594.27 0.600011C594.613 0.568825 594.957 0.544998 595.301 0.528548C625.375 -0.818148 657.205 16.1699 661.553 48.0106C661.881 50.418 661.997 52.8031 662.102 55.2259C653.561 55.0143 643.158 55.0966 634.652 55.2875C634.319 34.4661 617.452 27.171 598.876 26.7947C579.176 26.3955 561.744 37.9878 562.187 59.1103C562.358 67.2493 563.22 72.0384 568.658 78.7656C582.042 95.4297 603.36 89.8026 621.539 93.975C648.672 100.559 670.305 121.811 669.555 151.032C668.525 191.206 636.122 209.725 599.494 209.684C578.524 209.649 554.944 199.829 541.902 183.068C534.879 174.042 532.626 166.608 531.924 155.343C539.465 155.781 550.841 155.394 558.827 155.444C559.814 162.263 561.925 168.616 567.393 173.044C584.685 187.049 620.249 187.489 635.231 170.288C640.398 164.263 642.935 156.418 642.274 148.508C640.936 130.877 626.103 120.752 609.69 118.738C604.614 118.187 599.827 118.641 594.702 118.196C546.363 113.994 514.739 63.2551 548.355 22.4373C559.642 8.73213 576.39 1.97919 594.27 0.600011Z"/><path fill="#3d6d2d" d="M442.453 69.7787C448.106 69.991 451.083 69.7906 453.746 75.7419C465.022 100.941 456.574 132.74 431.151 145.589C420.922 150.76 407.405 152.39 396.398 148.75C401.642 163.041 407.333 171.992 421.049 180.086C424.728 182.257 428.929 183.704 432.799 185.619C434.503 190.86 436.284 196.076 438.141 201.265L437.693 201.582C425.383 200.982 410.699 193.672 401.552 185.517C388.42 173.831 380.426 157.437 379.304 139.893C378.313 122.405 384.275 105.235 395.892 92.1252C407.753 78.6877 424.55 70.6263 442.453 69.7787ZM394.801 133.155C396.917 134.086 398.772 134.952 401.016 135.567C421.299 140.613 437.843 128.433 443.598 109.071C444.911 104.656 445.727 87.8564 441.702 85.2685L440.69 85.345C413.743 89.4477 398.581 106.864 394.801 133.155Z"/><path fill="#27314f" d="M459.22 69.9748C474.225 72.1208 486.01 77.1821 497.221 87.5387C510.077 99.3776 517.685 115.853 518.361 133.318C519.126 150.993 512.753 168.234 500.676 181.162C489.003 193.751 472.818 201.203 455.665 201.887C451.801 201.859 446.886 202.151 444.9 197.975C426.125 158.502 455.059 112.69 501.177 122.946C494.301 103.155 484.691 94.1977 465.067 86.9103C463.208 81.2598 461.153 75.6137 459.22 69.9748ZM455.167 186.543C459.576 186.043 464.14 185.41 468.369 184.037C482.597 177.676 493.518 169.551 499.322 154.326C501.245 149.258 502.405 143.934 502.764 138.526C497.846 136.725 491.139 134.682 485.913 135.171C463.251 137.988 450.482 157.375 453.271 179.573C453.606 182.236 454.107 184.08 455.167 186.543Z"/><path fill="#3d6d2d" d="M171.388 70.7628L172.007 71.1022L172.166 88.2652C184.042 76.581 202.468 71.7068 218.667 70.9003C218.404 78.3083 218.608 87.0001 218.594 94.5098C205.872 95.6718 195.66 98.7485 186.251 108.16C169.38 125.036 172.049 144.723 172.089 166.439L172.101 207.121C164.983 206.877 154.584 206.964 147.58 207.224L147.564 70.8782C155.506 70.8801 163.447 70.8417 171.388 70.7628Z"/><path fill="#27314f" d="M687.558 71.0148C695.536 70.7816 704.042 70.8889 712.06 70.8592C712.098 116.106 711.63 161.96 712.139 207.146C704.575 206.829 695.239 207.097 687.608 207.161L687.558 71.0148Z"/><path fill="#3d6d2d" d="M344.392 45.8429C352.044 43.9282 359.796 48.5952 361.685 56.2544C363.574 63.9135 358.881 71.6499 351.216 73.513C343.587 75.3673 335.896 70.7013 334.016 63.0785C332.136 55.4558 336.776 47.7485 344.392 45.8429Z"/><path fill="#27314f" d="M698.493 5.996C706.266 5.10514 713.292 10.6738 714.201 18.4443C715.11 26.2149 709.558 33.255 701.79 34.1821C693.997 35.1123 686.929 29.5377 686.017 21.7415C685.105 13.9452 690.695 6.8898 698.493 5.996Z"/><path fill="#3d6d2d" d="M0 132.105C0.958808 127.523 2.06651 121.276 3.42765 116.981C8.42222 101.69 18.4846 88.5602 31.9516 79.7628C47.914 69.4851 67.2986 65.9526 85.86 69.9387C106.828 74.3595 129.457 91.9332 134.364 113.573C135.157 117.072 135.465 120.225 135.563 123.8C109.347 130.003 82.7228 135.336 56.5122 141.575C47.288 143.771 34.2283 145.833 25.435 148.29C31.5789 174.324 53.8584 190.256 80.8315 184.885C92.4067 182.58 102.094 172.622 108.087 162.819C108.336 162.409 108.576 161.994 108.806 161.573C116.831 161.564 127.746 161.889 135.535 161.46C134.428 164.383 133.338 167.358 132.024 170.195C116.379 203.959 79.6911 218.111 45.0072 204.94C27.4819 198.241 13.3657 184.808 5.80688 167.635C1.37357 157.74 2.47037 154.53 0 146.273L0 132.105ZM26.1361 126.897C36.6579 124.298 48.4837 122.132 58.5421 119.434C72.0724 116.834 90.7988 112.705 104.119 109.159C92.9125 95.9021 83.3776 90.989 65.6615 92.5373C45.3055 95.3559 32.1931 107.523 26.1361 126.897Z"/><path fill="#27314f" d="M730.967 70.9585L755.478 70.8774C755.474 86.5402 759.89 102.203 770.497 114.122C792.981 139.385 824.094 125.07 834.539 97.1174C838.135 87.4948 838.922 81.3966 839.558 71.0715C847.365 70.7166 856.111 70.8882 864 70.8989L864 79.6324C863.335 82.7312 862.823 85.7863 862.314 88.9083C859.218 107.897 848.187 128.153 832.2 139.266C846.576 150.059 856.777 165.492 861.074 182.947C862.276 187.776 862.83 194.559 864 198.88L864 207.101C855.833 207.075 847.666 207.093 839.5 207.154C838.701 190.031 834.938 175.383 822.662 162.667C816.123 156.079 807.463 151.147 797.938 151.34C768.95 151.925 755.601 182.513 755.504 207.139C747.96 206.842 738.596 207.089 730.957 207.192C731.512 178.568 739.922 157.644 762.283 139.233C739.813 120.915 731.591 99.4321 730.967 70.9585Z"/></svg>