<svg xmlns="http://www.w3.org/2000/svg" xmlns:xlink="http://www.w3.org/1999/xlink" width="1080px" height="1080px" viewBox="0 0 1080 1080" transform="rotate(0) scale(1, 1)"><path fill="#3d6d2d" d="M481.935 46.1435C506.542 46.5765 545.752 41.4794 562.789 63.0425C578.201 82.5498 587.582 112.329 595.884 135.732C613.475 185.323 615.146 239.18 613.014 291.246C612.642 300.361 611.954 317.528 610.634 326.095C603.797 367.797 590.594 408.201 571.487 445.894C527.288 535.518 448.875 603.581 353.925 634.737C337.01 640.374 319.558 644.253 301.848 646.313C293.657 647.285 283.341 647.306 275.022 647.899C254.534 649.36 234.439 649.367 213.978 647.711C207.241 646.78 197.42 647.432 190.896 645.939C179.152 643.253 159.476 640.522 149.158 635.316C148.928 646.684 162.529 677.307 167.662 688.987C205.229 774.772 272.356 844.211 356.819 884.661C370.299 891.041 384.131 896.649 398.247 901.458C404.558 903.669 411.002 905.569 417.262 907.825C419.796 908.738 421.722 909.696 422.569 912.27C424.322 917.6 425.687 923.263 427.111 928.691C429.524 938.034 432.105 947.333 434.851 956.584C441.561 978.692 449.491 996.747 458.522 1017.73C460.302 1021.96 461.706 1027.31 463.012 1031.78C449.534 1033.79 425.674 1028.16 411.859 1025.3C322.776 1006.29 240.768 962.792 175.069 899.7C90.9596 819.512 37.6412 712.363 24.3988 596.912C22.8924 583.758 21.2645 572.497 21.1363 559.044C20.9577 540.307 20.6478 521.827 22.0633 503.117C30.5477 388.685 78.4063 280.725 157.501 197.595C223.299 129.083 307.118 80.5574 399.297 57.6125C422.516 51.8379 445.8 46.8932 469.77 46.5008C473.812 46.4346 477.89 46.2481 481.935 46.1435ZM138.237 517.145C139.377 518.958 140.545 520.926 141.796 522.646C152.347 526.799 166.283 533.085 177.27 535.609C196.937 539.669 216.082 545.605 236.373 547.158C250.417 548.233 264.908 547.753 278.817 545.705C391.567 533.453 485.032 432.332 507.501 324.087C510.53 309.493 509.716 288.871 510.172 273.54C510.844 250.967 510.42 226.417 508.527 203.886C507.53 192.02 502.092 175.992 497.428 165.147C495.165 160.448 488.241 159.601 483.679 159.975C461.304 163.307 437.545 167.599 415.821 173.81C333.3 197.077 260.888 247.185 210.032 316.212C175.726 362.601 152.621 416.298 142.522 473.103C140.238 485.923 137.86 504.26 138.237 517.145Z"/><path fill="#27314f" d="M661.527 170.556C660.972 167.236 660.339 164.662 659.477 161.436C654.838 144.063 650.393 126.749 644.529 109.739C642.379 103.411 640.06 97.1415 637.573 90.938C635.053 84.7328 620.583 53.6465 621.838 48.8553C627.483 45.6822 643.308 49.6597 649.977 50.771C708.085 60.0573 763.948 80.1097 814.696 109.898C908.936 164.608 982.704 248.63 1024.76 349.157C1036.14 376.511 1042.7 398.563 1050.17 427.025C1050.75 432.899 1052.4 438.707 1053.7 444.485C1058.26 464.829 1059.21 483.658 1060.19 504.455C1059.81 507.647 1061.8 512.855 1061.96 516.538C1062.48 528.155 1062.84 539.976 1062.36 551.601C1062.13 557.07 1061.5 562.584 1061.29 568.078C1061.07 574.095 1061.33 580.385 1060.79 586.341C1054.95 650.962 1036.43 713.799 1006.29 771.257C943.653 889.856 835.887 978.229 707.317 1016.43C685.695 1023.06 663.652 1027.5 641.529 1032C637.211 1032.78 632.081 1032.26 627.839 1032.9C615.399 1034.77 603.306 1034.95 590.706 1034.7C571.88 1034.34 550.438 1036.19 533.431 1027.02C528.161 1024.24 523.531 1020.39 519.836 1015.72C506.1 998.567 490.851 953.782 484.281 932.644C469.512 885.129 468.475 831.142 471.154 781.703C471.65 772.536 471.982 761.485 473.399 752.616C481.015 707.709 495.938 664.354 517.574 624.273C564.178 536.328 644.19 470.817 739.602 442.484C779.641 430.58 827.722 430.382 869.331 432.505C886.253 433.368 901.003 434.773 917.28 439.652C917.736 439.788 935.9 444.15 934.447 444.468C936.861 437.637 914.966 387.863 910.762 379.027C872.41 299.247 808.142 234.827 728.454 196.285C704.26 184.649 686.094 179.247 661.527 170.556ZM587.604 916.876L593.97 920.451C610.697 920.178 666.251 908.642 682.583 901.776C692.232 899.487 712.585 890.903 721.968 886.709C792.424 855.002 851.679 802.781 891.989 736.868C916.778 696.717 933.592 652.164 941.512 605.647C943.924 591.667 945.795 577.009 945.524 562.803C944.464 561.101 943.375 559.277 942.271 557.617C935.798 555.214 929.228 551.925 922.752 549.821C893.609 540.353 850.026 530.028 819.879 532.835C741.498 538.921 684.98 574.392 634.858 633.856C605.926 668.181 583.927 716.453 575.568 760.858C573.826 770.11 573.86 794.064 573.676 804.006C573.26 826.508 573.463 850.364 574.998 872.788C575.814 884.726 582.032 906.49 587.604 916.876Z"/></svg>